<?xml version="1.0" encoding="UTF-8" standalone="no"?>
<!DOCTYPE svg PUBLIC "-//W3C//DTD SVG 1.1//EN" "http://www.w3.org/Graphics/SVG/1.1/DTD/svg11.dtd">
<!-- Generated by Microsoft Visio, SVG Export Dictionary Linked List.svg Page-1 -->
<svg xmlns="http://www.w3.org/2000/svg" xmlns:xlink="http://www.w3.org/1999/xlink" xmlns:ev="http://www.w3.org/2001/xml-events"
		xmlns:v="http://schemas.microsoft.com/visio/2003/SVGExtensions/" width="11.6929in" height="8.26772in"
		viewBox="0 0 841.89 595.276" xml:space="preserve" color-interpolation-filters="sRGB" class="st6">
	<v:documentProperties v:langID="1033" v:metric="true" v:viewMarkup="false">
		<v:userDefs>
			<v:ud v:nameU="msvSubprocessMaster" v:prompt="" v:val="VT4(Rectangle)"/>
			<v:ud v:nameU="msvNoAutoConnect" v:val="VT0(1):26"/>
		</v:userDefs>
	</v:documentProperties>

	<style type="text/css">
	<![CDATA[
		.st1 {fill:#595959;stroke:#c7c8c8;stroke-width:0.25}
		.st2 {fill:#feffff;font-family:Roboto Thin;font-size:1.99999em}
		.st3 {fill:#305497;stroke:#c7c8c8;stroke-width:0.25}
		.st4 {marker-end:url(#mrkr4-90);stroke:#fec000;stroke-linecap:round;stroke-linejoin:round;stroke-width:2}
		.st5 {fill:#fec000;fill-opacity:1;stroke:#fec000;stroke-opacity:1;stroke-width:0.52631578947368}
		.st6 {fill:none;fill-rule:evenodd;font-size:12px;overflow:visible;stroke-linecap:square;stroke-miterlimit:3}
	]]>
	</style>

	<defs id="Markers">
		<g id="lend4">
			<path d="M 2 1 L 0 0 L 2 -1 L 2 1 " style="stroke:none"/>
		</g>
		<marker id="mrkr4-90" class="st5" v:arrowType="4" v:arrowSize="1" v:setback="3.8" refX="-3.8" orient="auto"
				markerUnits="strokeWidth" overflow="visible">
			<use xlink:href="#lend4" transform="scale(-1.9,-1.9) "/>
		</marker>
	</defs>
	<g v:mID="0" v:index="1" v:groupContext="foregroundPage">
		<v:userDefs>
			<v:ud v:nameU="msvThemeOrder" v:val="VT0(0):26"/>
		</v:userDefs>
		<title>Page-1</title>
		<v:pageProperties v:drawingScale="0.0393701" v:pageScale="0.0393701" v:drawingUnits="24" v:shadowOffsetX="8.50394"
				v:shadowOffsetY="-8.50394"/>
		<v:layer v:name="Connector" v:index="0"/>
		<g id="shape1-1" v:mID="1" v:groupContext="shape" transform="translate(51.0236,-477.349)">
			<title>Circle</title>
			<desc>A</desc>
			<v:userDefs>
				<v:ud v:nameU="visVersion" v:val="VT0(15):26"/>
			</v:userDefs>
			<v:textBlock v:margins="rect(4,4,4,4)" v:tabSpace="42.5197"/>
			<v:textRect cx="23.6241" cy="571.651" width="41.35" height="35.4361"/>
			<path d="M0 571.65 A23.6241 23.6241 0 1 1 47.25 571.65 A23.6241 23.6241 0 0 1 0 571.65 Z" class="st1"/>
			<text x="16.46" y="578.85" class="st2" v:langID="1033"><v:paragraph v:horizAlign="1"/><v:tabList/>A</text>		</g>
		<g id="shape2-4" v:mID="2" v:groupContext="shape" transform="translate(129.054,-477.349)">
			<title>Circle.2</title>
			<desc>L</desc>
			<v:userDefs>
				<v:ud v:nameU="visVersion" v:val="VT0(15):26"/>
			</v:userDefs>
			<v:textBlock v:margins="rect(4,4,4,4)" v:tabSpace="42.5197"/>
			<v:textRect cx="23.6241" cy="571.651" width="41.35" height="35.4361"/>
			<path d="M0 571.65 A23.6241 23.6241 0 1 1 47.25 571.65 A23.6241 23.6241 0 0 1 0 571.65 Z" class="st1"/>
			<text x="17.43" y="578.85" class="st2" v:langID="1033"><v:paragraph v:horizAlign="1"/><v:tabList/>L</text>		</g>
		<g id="shape3-7" v:mID="3" v:groupContext="shape" transform="translate(207.085,-477.349)">
			<title>Circle.3</title>
			<desc>L</desc>
			<v:userDefs>
				<v:ud v:nameU="visVersion" v:val="VT0(15):26"/>
			</v:userDefs>
			<v:textBlock v:margins="rect(4,4,4,4)" v:tabSpace="42.5197"/>
			<v:textRect cx="23.6241" cy="571.651" width="41.35" height="35.4361"/>
			<path d="M0 571.65 A23.6241 23.6241 0 1 1 47.25 571.65 A23.6241 23.6241 0 0 1 0 571.65 Z" class="st3"/>
			<text x="17.43" y="578.85" class="st2" v:langID="1033"><v:paragraph v:horizAlign="1"/><v:tabList/>L</text>		</g>
		<g id="shape4-10" v:mID="4" v:groupContext="shape" transform="translate(285.116,-477.349)">
			<title>Circle.4</title>
			<desc>O</desc>
			<v:userDefs>
				<v:ud v:nameU="visVersion" v:val="VT0(15):26"/>
			</v:userDefs>
			<v:textBlock v:margins="rect(4,4,4,4)" v:tabSpace="42.5197"/>
			<v:textRect cx="23.6241" cy="571.651" width="41.35" height="35.4361"/>
			<path d="M0 571.65 A23.6241 23.6241 0 1 1 47.25 571.65 A23.6241 23.6241 0 0 1 0 571.65 Z" class="st3"/>
			<text x="15.63" y="578.85" class="st2" v:langID="1033"><v:paragraph v:horizAlign="1"/><v:tabList/>O</text>		</g>
		<g id="shape5-13" v:mID="5" v:groupContext="shape" transform="translate(363.147,-477.349)">
			<title>Circle.5</title>
			<desc>C</desc>
			<v:userDefs>
				<v:ud v:nameU="visVersion" v:val="VT0(15):26"/>
			</v:userDefs>
			<v:textBlock v:margins="rect(4,4,4,4)" v:tabSpace="42.5197"/>
			<v:textRect cx="23.6241" cy="571.651" width="41.35" height="35.4361"/>
			<path d="M0 571.65 A23.6241 23.6241 0 1 1 47.25 571.65 A23.6241 23.6241 0 0 1 0 571.65 Z" class="st1"/>
			<text x="15.85" y="578.85" class="st2" v:langID="1033"><v:paragraph v:horizAlign="1"/><v:tabList/>C</text>		</g>
		<g id="shape6-16" v:mID="6" v:groupContext="shape" transform="translate(441.178,-477.349)">
			<title>Circle.6</title>
			<desc>A</desc>
			<v:userDefs>
				<v:ud v:nameU="visVersion" v:val="VT0(15):26"/>
			</v:userDefs>
			<v:textBlock v:margins="rect(4,4,4,4)" v:tabSpace="42.5197"/>
			<v:textRect cx="23.6241" cy="571.651" width="41.35" height="35.4361"/>
			<path d="M0 571.65 A23.6241 23.6241 0 1 1 47.25 571.65 A23.6241 23.6241 0 0 1 0 571.65 Z" class="st1"/>
			<text x="16.46" y="578.85" class="st2" v:langID="1033"><v:paragraph v:horizAlign="1"/><v:tabList/>A</text>		</g>
		<g id="shape7-19" v:mID="7" v:groupContext="shape" transform="translate(519.209,-477.349)">
			<title>Circle.7</title>
			<desc>T</desc>
			<v:userDefs>
				<v:ud v:nameU="visVersion" v:val="VT0(15):26"/>
			</v:userDefs>
			<v:textBlock v:margins="rect(4,4,4,4)" v:tabSpace="42.5197"/>
			<v:textRect cx="23.6241" cy="571.651" width="41.35" height="35.4361"/>
			<path d="M0 571.65 A23.6241 23.6241 0 1 1 47.25 571.65 A23.6241 23.6241 0 0 1 0 571.65 Z" class="st1"/>
			<text x="16.45" y="578.85" class="st2" v:langID="1033"><v:paragraph v:horizAlign="1"/><v:tabList/>T</text>		</g>
		<g id="shape8-22" v:mID="8" v:groupContext="shape" transform="translate(597.24,-477.349)">
			<title>Circle.8</title>
			<desc>I</desc>
			<v:userDefs>
				<v:ud v:nameU="visVersion" v:val="VT0(15):26"/>
			</v:userDefs>
			<v:textBlock v:margins="rect(4,4,4,4)" v:tabSpace="42.5197"/>
			<v:textRect cx="23.6241" cy="571.651" width="41.35" height="35.4361"/>
			<path d="M0 571.65 A23.6241 23.6241 0 1 1 47.25 571.65 A23.6241 23.6241 0 0 1 0 571.65 Z" class="st1"/>
			<text x="20.5" y="578.85" class="st2" v:langID="1033"><v:paragraph v:horizAlign="1"/><v:tabList/>I</text>		</g>
		<g id="shape9-25" v:mID="9" v:groupContext="shape" transform="translate(675.27,-477.349)">
			<title>Circle.9</title>
			<desc>O</desc>
			<v:userDefs>
				<v:ud v:nameU="visVersion" v:val="VT0(15):26"/>
			</v:userDefs>
			<v:textBlock v:margins="rect(4,4,4,4)" v:tabSpace="42.5197"/>
			<v:textRect cx="23.6241" cy="571.651" width="41.35" height="35.4361"/>
			<path d="M0 571.65 A23.6241 23.6241 0 1 1 47.25 571.65 A23.6241 23.6241 0 0 1 0 571.65 Z" class="st1"/>
			<text x="15.63" y="578.85" class="st2" v:langID="1033"><v:paragraph v:horizAlign="1"/><v:tabList/>O</text>		</g>
		<g id="shape10-28" v:mID="10" v:groupContext="shape" transform="translate(753.301,-477.349)">
			<title>Circle.10</title>
			<desc>N</desc>
			<v:userDefs>
				<v:ud v:nameU="visVersion" v:val="VT0(15):26"/>
			</v:userDefs>
			<v:textBlock v:margins="rect(4,4,4,4)" v:tabSpace="42.5197"/>
			<v:textRect cx="23.6241" cy="571.651" width="41.35" height="35.4361"/>
			<path d="M0 571.65 A23.6241 23.6241 0 1 1 47.25 571.65 A23.6241 23.6241 0 0 1 0 571.65 Z" class="st3"/>
			<text x="15.13" y="578.85" class="st2" v:langID="1033"><v:paragraph v:horizAlign="1"/><v:tabList/>N</text>		</g>
		<g id="shape11-31" v:mID="11" v:groupContext="shape" transform="translate(51.0236,-395.914)">
			<title>Circle.11</title>
			<desc>Z</desc>
			<v:userDefs>
				<v:ud v:nameU="visVersion" v:val="VT0(15):26"/>
			</v:userDefs>
			<v:textBlock v:margins="rect(4,4,4,4)" v:tabSpace="42.5197"/>
			<v:textRect cx="23.6241" cy="571.651" width="41.35" height="35.4361"/>
			<path d="M0 571.65 A23.6241 23.6241 0 1 1 47.25 571.65 A23.6241 23.6241 0 0 1 0 571.65 Z" class="st1"/>
			<text x="16.45" y="578.85" class="st2" v:langID="1033"><v:paragraph v:horizAlign="1"/><v:tabList/>Z</text>		</g>
		<g id="shape12-34" v:mID="12" v:groupContext="shape" transform="translate(129.054,-395.914)">
			<title>Circle.12</title>
			<desc>O</desc>
			<v:userDefs>
				<v:ud v:nameU="visVersion" v:val="VT0(15):26"/>
			</v:userDefs>
			<v:textBlock v:margins="rect(4,4,4,4)" v:tabSpace="42.5197"/>
			<v:textRect cx="23.6241" cy="571.651" width="41.35" height="35.4361"/>
			<path d="M0 571.65 A23.6241 23.6241 0 1 1 47.25 571.65 A23.6241 23.6241 0 0 1 0 571.65 Z" class="st1"/>
			<text x="15.63" y="578.85" class="st2" v:langID="1033"><v:paragraph v:horizAlign="1"/><v:tabList/>O</text>		</g>
		<g id="shape13-37" v:mID="13" v:groupContext="shape" transform="translate(207.085,-395.914)">
			<title>Circle.13</title>
			<desc>O</desc>
			<v:userDefs>
				<v:ud v:nameU="visVersion" v:val="VT0(15):26"/>
			</v:userDefs>
			<v:textBlock v:margins="rect(4,4,4,4)" v:tabSpace="42.5197"/>
			<v:textRect cx="23.6241" cy="571.651" width="41.35" height="35.4361"/>
			<path d="M0 571.65 A23.6241 23.6241 0 1 1 47.25 571.65 A23.6241 23.6241 0 0 1 0 571.65 Z" class="st3"/>
			<text x="15.63" y="578.85" class="st2" v:langID="1033"><v:paragraph v:horizAlign="1"/><v:tabList/>O</text>		</g>
		<g id="shape14-40" v:mID="14" v:groupContext="shape" transform="translate(51.0236,-314.479)">
			<title>Circle.14</title>
			<desc>B</desc>
			<v:userDefs>
				<v:ud v:nameU="visVersion" v:val="VT0(15):26"/>
			</v:userDefs>
			<v:textBlock v:margins="rect(4,4,4,4)" v:tabSpace="42.5197"/>
			<v:textRect cx="23.6241" cy="571.651" width="41.35" height="35.4361"/>
			<path d="M0 571.65 A23.6241 23.6241 0 1 1 47.25 571.65 A23.6241 23.6241 0 0 1 0 571.65 Z" class="st1"/>
			<text x="16.39" y="578.85" class="st2" v:langID="1033"><v:paragraph v:horizAlign="1"/><v:tabList/>B</text>		</g>
		<g id="shape15-43" v:mID="15" v:groupContext="shape" transform="translate(129.054,-314.479)">
			<title>Circle.15</title>
			<desc>A</desc>
			<v:userDefs>
				<v:ud v:nameU="visVersion" v:val="VT0(15):26"/>
			</v:userDefs>
			<v:textBlock v:margins="rect(4,4,4,4)" v:tabSpace="42.5197"/>
			<v:textRect cx="23.6241" cy="571.651" width="41.35" height="35.4361"/>
			<path d="M0 571.65 A23.6241 23.6241 0 1 1 47.25 571.65 A23.6241 23.6241 0 0 1 0 571.65 Z" class="st1"/>
			<text x="16.46" y="578.85" class="st2" v:langID="1033"><v:paragraph v:horizAlign="1"/><v:tabList/>A</text>		</g>
		<g id="shape16-46" v:mID="16" v:groupContext="shape" transform="translate(207.085,-314.479)">
			<title>Circle.16</title>
			<desc>T</desc>
			<v:userDefs>
				<v:ud v:nameU="visVersion" v:val="VT0(15):26"/>
			</v:userDefs>
			<v:textBlock v:margins="rect(4,4,4,4)" v:tabSpace="42.5197"/>
			<v:textRect cx="23.6241" cy="571.651" width="41.35" height="35.4361"/>
			<path d="M0 571.65 A23.6241 23.6241 0 1 1 47.25 571.65 A23.6241 23.6241 0 0 1 0 571.65 Z" class="st3"/>
			<text x="16.45" y="578.85" class="st2" v:langID="1033"><v:paragraph v:horizAlign="1"/><v:tabList/>T</text>		</g>
		<g id="shape17-49" v:mID="17" v:groupContext="shape" transform="translate(285.116,-314.479)">
			<title>Circle.17</title>
			<desc>C</desc>
			<v:userDefs>
				<v:ud v:nameU="visVersion" v:val="VT0(15):26"/>
			</v:userDefs>
			<v:textBlock v:margins="rect(4,4,4,4)" v:tabSpace="42.5197"/>
			<v:textRect cx="23.6241" cy="571.651" width="41.35" height="35.4361"/>
			<path d="M0 571.65 A23.6241 23.6241 0 1 1 47.25 571.65 A23.6241 23.6241 0 0 1 0 571.65 Z" class="st1"/>
			<text x="15.85" y="578.85" class="st2" v:langID="1033"><v:paragraph v:horizAlign="1"/><v:tabList/>C</text>		</g>
		<g id="shape18-52" v:mID="18" v:groupContext="shape" transform="translate(363.147,-314.479)">
			<title>Circle.18</title>
			<desc>H</desc>
			<v:userDefs>
				<v:ud v:nameU="visVersion" v:val="VT0(15):26"/>
			</v:userDefs>
			<v:textBlock v:margins="rect(4,4,4,4)" v:tabSpace="42.5197"/>
			<v:textRect cx="23.6241" cy="571.651" width="41.35" height="35.4361"/>
			<path d="M0 571.65 A23.6241 23.6241 0 1 1 47.25 571.65 A23.6241 23.6241 0 0 1 0 571.65 Z" class="st3"/>
			<text x="15.2" y="578.85" class="st2" v:langID="1033"><v:paragraph v:horizAlign="1"/><v:tabList/>H</text>		</g>
		<g id="shape19-55" v:mID="19" v:groupContext="shape" transform="translate(129.054,-233.044)">
			<title>Circle.19</title>
			<desc>O</desc>
			<v:userDefs>
				<v:ud v:nameU="visVersion" v:val="VT0(15):26"/>
			</v:userDefs>
			<v:textBlock v:margins="rect(4,4,4,4)" v:tabSpace="42.5197"/>
			<v:textRect cx="23.6241" cy="571.651" width="41.35" height="35.4361"/>
			<path d="M0 571.65 A23.6241 23.6241 0 1 1 47.25 571.65 A23.6241 23.6241 0 0 1 0 571.65 Z" class="st1"/>
			<text x="15.63" y="578.85" class="st2" v:langID="1033"><v:paragraph v:horizAlign="1"/><v:tabList/>O</text>		</g>
		<g id="shape20-58" v:mID="20" v:groupContext="shape" transform="translate(207.085,-233.044)">
			<title>Circle.20</title>
			<desc>O</desc>
			<v:userDefs>
				<v:ud v:nameU="visVersion" v:val="VT0(15):26"/>
			</v:userDefs>
			<v:textBlock v:margins="rect(4,4,4,4)" v:tabSpace="42.5197"/>
			<v:textRect cx="23.6241" cy="571.651" width="41.35" height="35.4361"/>
			<path d="M0 571.65 A23.6241 23.6241 0 1 1 47.25 571.65 A23.6241 23.6241 0 0 1 0 571.65 Z" class="st1"/>
			<text x="15.63" y="578.85" class="st2" v:langID="1033"><v:paragraph v:horizAlign="1"/><v:tabList/>O</text>		</g>
		<g id="shape21-61" v:mID="21" v:groupContext="shape" transform="translate(285.116,-233.044)">
			<title>Circle.21</title>
			<desc>K</desc>
			<v:userDefs>
				<v:ud v:nameU="visVersion" v:val="VT0(15):26"/>
			</v:userDefs>
			<v:textBlock v:margins="rect(4,4,4,4)" v:tabSpace="42.5197"/>
			<v:textRect cx="23.6241" cy="571.651" width="41.35" height="35.4361"/>
			<path d="M0 571.65 A23.6241 23.6241 0 1 1 47.25 571.65 A23.6241 23.6241 0 0 1 0 571.65 Z" class="st3"/>
			<text x="16.01" y="578.85" class="st2" v:langID="1033"><v:paragraph v:horizAlign="1"/><v:tabList/>K</text>		</g>
		<g id="shape23-64" v:mID="23" v:groupContext="shape" transform="translate(51.0236,-151.609)">
			<title>Circle.23</title>
			<desc>L</desc>
			<v:userDefs>
				<v:ud v:nameU="visVersion" v:val="VT0(15):26"/>
			</v:userDefs>
			<v:textBlock v:margins="rect(4,4,4,4)" v:tabSpace="42.5197"/>
			<v:textRect cx="23.6241" cy="571.651" width="41.35" height="35.4361"/>
			<path d="M0 571.65 A23.6241 23.6241 0 1 1 47.25 571.65 A23.6241 23.6241 0 0 1 0 571.65 Z" class="st1"/>
			<text x="17.43" y="578.85" class="st2" v:langID="1033"><v:paragraph v:horizAlign="1"/><v:tabList/>L</text>		</g>
		<g id="shape24-67" v:mID="24" v:groupContext="shape" transform="translate(129.054,-151.609)">
			<title>Circle.24</title>
			<desc>I</desc>
			<v:userDefs>
				<v:ud v:nameU="visVersion" v:val="VT0(15):26"/>
			</v:userDefs>
			<v:textBlock v:margins="rect(4,4,4,4)" v:tabSpace="42.5197"/>
			<v:textRect cx="23.6241" cy="571.651" width="41.35" height="35.4361"/>
			<path d="M0 571.65 A23.6241 23.6241 0 1 1 47.25 571.65 A23.6241 23.6241 0 0 1 0 571.65 Z" class="st1"/>
			<text x="20.5" y="578.85" class="st2" v:langID="1033"><v:paragraph v:horizAlign="1"/><v:tabList/>I</text>		</g>
		<g id="shape25-70" v:mID="25" v:groupContext="shape" transform="translate(207.085,-151.609)">
			<title>Circle.25</title>
			<desc>K</desc>
			<v:userDefs>
				<v:ud v:nameU="visVersion" v:val="VT0(15):26"/>
			</v:userDefs>
			<v:textBlock v:margins="rect(4,4,4,4)" v:tabSpace="42.5197"/>
			<v:textRect cx="23.6241" cy="571.651" width="41.35" height="35.4361"/>
			<path d="M0 571.65 A23.6241 23.6241 0 1 1 47.25 571.65 A23.6241 23.6241 0 0 1 0 571.65 Z" class="st1"/>
			<text x="16.01" y="578.85" class="st2" v:langID="1033"><v:paragraph v:horizAlign="1"/><v:tabList/>K</text>		</g>
		<g id="shape26-73" v:mID="26" v:groupContext="shape" transform="translate(285.116,-151.609)">
			<title>Circle.26</title>
			<desc>E</desc>
			<v:userDefs>
				<v:ud v:nameU="visVersion" v:val="VT0(15):26"/>
			</v:userDefs>
			<v:textBlock v:margins="rect(4,4,4,4)" v:tabSpace="42.5197"/>
			<v:textRect cx="23.6241" cy="571.651" width="41.35" height="35.4361"/>
			<path d="M0 571.65 A23.6241 23.6241 0 1 1 47.25 571.65 A23.6241 23.6241 0 0 1 0 571.65 Z" class="st3"/>
			<text x="16.79" y="578.85" class="st2" v:langID="1033"><v:paragraph v:horizAlign="1"/><v:tabList/>E</text>		</g>
		<g id="shape27-76" v:mID="27" v:groupContext="shape" transform="translate(207.085,-70.1742)">
			<title>Circle.27</title>
			<desc>N</desc>
			<v:userDefs>
				<v:ud v:nameU="visVersion" v:val="VT0(15):26"/>
			</v:userDefs>
			<v:textBlock v:margins="rect(4,4,4,4)" v:tabSpace="42.5197"/>
			<v:textRect cx="23.6241" cy="571.651" width="41.35" height="35.4361"/>
			<path d="M0 571.65 A23.6241 23.6241 0 1 1 47.25 571.65 A23.6241 23.6241 0 0 1 0 571.65 Z" class="st1"/>
			<text x="15.13" y="578.85" class="st2" v:langID="1033"><v:paragraph v:horizAlign="1"/><v:tabList/>N</text>		</g>
		<g id="shape28-79" v:mID="28" v:groupContext="shape" transform="translate(285.116,-70.1742)">
			<title>Circle.28</title>
			<desc>U</desc>
			<v:userDefs>
				<v:ud v:nameU="visVersion" v:val="VT0(15):26"/>
			</v:userDefs>
			<v:textBlock v:margins="rect(4,4,4,4)" v:tabSpace="42.5197"/>
			<v:textRect cx="23.6241" cy="571.651" width="41.35" height="35.4361"/>
			<path d="M0 571.65 A23.6241 23.6241 0 1 1 47.25 571.65 A23.6241 23.6241 0 0 1 0 571.65 Z" class="st1"/>
			<text x="15.63" y="578.85" class="st2" v:langID="1033"><v:paragraph v:horizAlign="1"/><v:tabList/>U</text>		</g>
		<g id="shape29-82" v:mID="29" v:groupContext="shape" transform="translate(363.147,-70.1742)">
			<title>Circle.29</title>
			<desc>X</desc>
			<v:userDefs>
				<v:ud v:nameU="visVersion" v:val="VT0(15):26"/>
			</v:userDefs>
			<v:textBlock v:margins="rect(4,4,4,4)" v:tabSpace="42.5197"/>
			<v:textRect cx="23.6241" cy="571.651" width="41.35" height="35.4361"/>
			<path d="M0 571.65 A23.6241 23.6241 0 1 1 47.25 571.65 A23.6241 23.6241 0 0 1 0 571.65 Z" class="st3"/>
			<text x="16.46" y="578.85" class="st2" v:langID="1033"><v:paragraph v:horizAlign="1"/><v:tabList/>X</text>		</g>
		<g id="shape30-85" v:mID="30" v:groupContext="shape" v:layerMember="0" transform="translate(98.2718,-493.886)">
			<title>Dynamic connector</title>
			<path d="M0 588.19 L23.18 588.19" class="st4"/>
		</g>
		<g id="shape31-91" v:mID="31" v:groupContext="shape" v:layerMember="0" transform="translate(176.303,-493.886)">
			<title>Dynamic connector.31</title>
			<path d="M0 588.19 L23.18 588.19" class="st4"/>
		</g>
		<g id="shape32-96" v:mID="32" v:groupContext="shape" v:layerMember="0" transform="translate(254.334,-493.886)">
			<title>Dynamic connector.32</title>
			<path d="M0 588.19 L23.18 588.19" class="st4"/>
		</g>
		<g id="shape33-101" v:mID="33" v:groupContext="shape" v:layerMember="0" transform="translate(332.364,-493.886)">
			<title>Dynamic connector.33</title>
			<path d="M0 588.19 L23.18 588.19" class="st4"/>
		</g>
		<g id="shape34-106" v:mID="34" v:groupContext="shape" v:layerMember="0" transform="translate(410.395,-493.886)">
			<title>Dynamic connector.34</title>
			<path d="M0 588.19 L23.18 588.19" class="st4"/>
		</g>
		<g id="shape35-111" v:mID="35" v:groupContext="shape" v:layerMember="0" transform="translate(488.426,-493.886)">
			<title>Dynamic connector.35</title>
			<path d="M0 588.19 L23.18 588.19" class="st4"/>
		</g>
		<g id="shape36-116" v:mID="36" v:groupContext="shape" v:layerMember="0" transform="translate(566.457,-493.886)">
			<title>Dynamic connector.36</title>
			<path d="M0 588.19 L23.18 588.19" class="st4"/>
		</g>
		<g id="shape37-121" v:mID="37" v:groupContext="shape" v:layerMember="0" transform="translate(644.488,-493.886)">
			<title>Dynamic connector.37</title>
			<path d="M0 588.19 L23.18 588.19" class="st4"/>
		</g>
		<g id="shape38-126" v:mID="38" v:groupContext="shape" v:layerMember="0" transform="translate(722.519,-493.886)">
			<title>Dynamic connector.38</title>
			<path d="M0 588.19 L23.18 588.19" class="st4"/>
		</g>
		<g id="shape39-131" v:mID="39" v:groupContext="shape" v:layerMember="0" transform="translate(67.5611,-477.349)">
			<title>Dynamic connector.39</title>
			<path d="M7.09 595.28 L7.09 621.86" class="st4"/>
		</g>
		<g id="shape40-136" v:mID="40" v:groupContext="shape" v:layerMember="0" transform="translate(98.2718,-412.451)">
			<title>Dynamic connector.40</title>
			<path d="M0 588.19 L23.18 588.19" class="st4"/>
		</g>
		<g id="shape41-141" v:mID="41" v:groupContext="shape" v:layerMember="0" transform="translate(176.303,-412.451)">
			<title>Dynamic connector.41</title>
			<path d="M0 588.19 L23.18 588.19" class="st4"/>
		</g>
		<g id="shape42-146" v:mID="42" v:groupContext="shape" v:layerMember="0" transform="translate(67.5611,-395.914)">
			<title>Dynamic connector.42</title>
			<path d="M7.09 595.28 L7.09 621.86" class="st4"/>
		</g>
		<g id="shape43-151" v:mID="43" v:groupContext="shape" v:layerMember="0" transform="translate(98.2718,-331.016)">
			<title>Dynamic connector.43</title>
			<path d="M0 588.19 L23.18 588.19" class="st4"/>
		</g>
		<g id="shape44-156" v:mID="44" v:groupContext="shape" v:layerMember="0" transform="translate(176.303,-331.016)">
			<title>Dynamic connector.44</title>
			<path d="M0 588.19 L23.18 588.19" class="st4"/>
		</g>
		<g id="shape45-161" v:mID="45" v:groupContext="shape" v:layerMember="0" transform="translate(145.592,-314.479)">
			<title>Dynamic connector.45</title>
			<path d="M7.09 595.28 L7.09 621.86" class="st4"/>
		</g>
		<g id="shape46-166" v:mID="46" v:groupContext="shape" v:layerMember="0" transform="translate(176.303,-249.581)">
			<title>Dynamic connector.46</title>
			<path d="M0 588.19 L23.18 588.19" class="st4"/>
		</g>
		<g id="shape47-171" v:mID="47" v:groupContext="shape" v:layerMember="0" transform="translate(254.334,-249.581)">
			<title>Dynamic connector.47</title>
			<path d="M0 588.19 L23.18 588.19" class="st4"/>
		</g>
		<g id="shape48-176" v:mID="48" v:groupContext="shape" v:layerMember="0" transform="translate(254.334,-331.016)">
			<title>Dynamic connector.48</title>
			<path d="M0 588.19 L23.18 588.19" class="st4"/>
		</g>
		<g id="shape49-181" v:mID="49" v:groupContext="shape" v:layerMember="0" transform="translate(332.364,-331.016)">
			<title>Dynamic connector.49</title>
			<path d="M0 588.19 L23.18 588.19" class="st4"/>
		</g>
		<g id="shape50-186" v:mID="50" v:groupContext="shape" v:layerMember="0" transform="translate(67.5611,-314.479)">
			<title>Dynamic connector.50</title>
			<path d="M7.09 595.28 L7.09 703.3" class="st4"/>
		</g>
		<g id="shape51-191" v:mID="51" v:groupContext="shape" v:layerMember="0" transform="translate(98.2718,-168.147)">
			<title>Dynamic connector.51</title>
			<path d="M0 588.19 L23.18 588.19" class="st4"/>
		</g>
		<g id="shape52-196" v:mID="52" v:groupContext="shape" v:layerMember="0" transform="translate(176.303,-168.147)">
			<title>Dynamic connector.52</title>
			<path d="M0 588.19 L23.18 588.19" class="st4"/>
		</g>
		<g id="shape53-201" v:mID="53" v:groupContext="shape" v:layerMember="0" transform="translate(254.334,-168.147)">
			<title>Dynamic connector.53</title>
			<path d="M0 588.19 L23.18 588.19" class="st4"/>
		</g>
		<g id="shape54-206" v:mID="54" v:groupContext="shape" v:layerMember="0" transform="translate(223.623,-151.609)">
			<title>Dynamic connector.54</title>
			<path d="M7.09 595.28 L7.09 621.86" class="st4"/>
		</g>
		<g id="shape55-211" v:mID="55" v:groupContext="shape" v:layerMember="0" transform="translate(254.334,-86.7117)">
			<title>Dynamic connector.55</title>
			<path d="M0 588.19 L23.18 588.19" class="st4"/>
		</g>
		<g id="shape56-216" v:mID="56" v:groupContext="shape" v:layerMember="0" transform="translate(332.364,-86.7117)">
			<title>Dynamic connector.56</title>
			<path d="M0 588.19 L23.18 588.19" class="st4"/>
		</g>
	</g>
</svg>
